<?xml version="1.0" standalone="no"?>
<!DOCTYPE svg PUBLIC "-//W3C//DTD SVG 20010904//EN"
 "http://www.w3.org/TR/2001/REC-SVG-20010904/DTD/svg10.dtd">
<svg version="1.0" xmlns="http://www.w3.org/2000/svg"
 width="554.000000pt" height="554.000000pt" viewBox="0 0 554.000000 554.000000"
 preserveAspectRatio="xMidYMid meet">
<metadata>
Created by potrace 1.14, written by Peter Selinger 2001-2017
</metadata>
<g transform="translate(0.000000,554.000000) scale(0.100000,-0.100000)"
fill="#000000" stroke="none">
<path d="M1100 5475 c-14 -8 -33 -14 -43 -15 -35 0 -49 -27 -44 -83 2 -28 8
-62 12 -74 7 -21 4 -23 -23 -23 -17 0 -34 -4 -37 -10 -3 -5 -23 -10 -44 -10
-43 0 -96 -23 -111 -48 -9 -15 -12 -15 -29 7 -17 22 -23 23 -72 18 -46 -6 -58
-12 -86 -44 -18 -21 -32 -43 -33 -50 0 -6 18 -24 40 -40 43 -31 48 -44 24 -64
-9 -7 -22 -30 -31 -50 -14 -35 -16 -37 -53 -32 -36 5 -40 3 -51 -23 -6 -16
-15 -37 -20 -46 -15 -29 -10 -73 10 -95 11 -11 38 -23 60 -27 23 -3 41 -10 41
-15 0 -5 -24 -19 -54 -31 -30 -12 -62 -30 -72 -41 -16 -17 -16 -24 -5 -57 23
-65 38 -82 74 -82 17 0 41 7 51 15 25 19 31 19 49 0 12 -12 13 -21 5 -43 -14
-36 -3 -83 21 -89 10 -3 28 -18 40 -34 22 -29 63 -40 76 -19 3 6 10 10 15 10
6 0 1 -15 -10 -32 -11 -18 -20 -39 -20 -45 0 -30 68 -83 105 -83 10 0 37 18
62 40 25 22 49 40 53 40 6 0 18 -111 21 -190 0 -8 -22 -39 -50 -68 -50 -53
-85 -107 -111 -172 -7 -19 -21 -46 -30 -60 -22 -32 -40 -116 -40 -188 0 -60
-14 -111 -42 -153 -28 -43 -39 -129 -23 -181 21 -71 51 -132 92 -184 20 -27
42 -62 48 -79 6 -16 23 -51 38 -76 22 -37 39 -52 87 -73 45 -20 61 -33 66 -53
4 -13 22 -47 40 -75 19 -27 34 -57 34 -65 0 -15 31 -65 57 -91 22 -23 16 -52
-11 -52 -35 0 -121 -86 -129 -129 -15 -72 -8 -147 19 -207 14 -33 29 -61 33
-64 4 -3 20 -23 34 -45 17 -25 48 -51 84 -71 44 -23 64 -41 83 -75 14 -25 44
-74 68 -109 31 -47 42 -73 42 -101 0 -21 5 -41 10 -44 6 -3 10 -28 10 -56 0
-27 4 -57 9 -67 5 -9 16 -48 25 -87 31 -129 35 -140 63 -163 73 -61 129 -77
172 -50 26 16 47 5 54 -30 3 -16 22 -50 41 -76 30 -38 36 -55 36 -94 0 -49 32
-161 57 -197 7 -11 13 -29 13 -40 0 -38 21 -94 45 -124 14 -16 25 -38 25 -50
0 -11 9 -36 19 -55 21 -37 33 -76 51 -171 7 -33 17 -73 23 -90 17 -45 59 -105
73 -105 7 0 25 -17 39 -37 24 -36 62 -61 200 -134 l59 -31 386 4 c372 4 386 5
427 26 23 12 48 22 55 22 7 0 31 18 53 39 22 21 66 63 98 92 41 38 69 75 96
128 20 42 42 85 48 96 15 27 68 161 81 205 6 19 13 57 17 85 3 27 13 63 20 80
8 16 19 54 25 84 5 30 14 59 19 65 4 6 14 35 21 64 6 28 16 55 21 58 5 3 9 30
9 61 0 49 27 158 51 205 5 10 9 30 9 45 0 44 12 55 52 48 43 -8 123 23 161 63
36 39 64 143 66 248 3 121 40 375 61 414 5 8 28 36 53 61 90 94 131 179 144
298 7 62 -13 142 -45 180 -22 26 -38 34 -92 43 -79 14 -93 23 -79 49 14 27
102 26 166 -2 85 -38 221 -33 305 12 10 5 40 9 67 9 30 0 53 5 61 15 6 8 22
17 33 21 12 4 34 15 49 25 14 11 30 19 35 19 6 0 44 34 86 76 86 86 97 118 52
148 -27 18 -80 21 -90 6 -9 -14 -35 -12 -35 3 0 7 18 31 41 52 46 45 83 113
77 141 -3 17 -12 19 -81 16 -53 -2 -77 0 -77 8 0 14 49 99 71 123 9 10 22 35
29 57 11 34 11 42 -4 65 -13 20 -25 25 -57 25 -22 0 -48 -4 -57 -9 -9 -4 -34
-11 -54 -14 -47 -7 -49 6 -9 48 40 40 93 141 89 168 -3 20 -8 22 -58 20 -30
-1 -79 -6 -108 -11 -29 -5 -55 -5 -57 -2 -2 4 7 18 20 30 14 13 25 31 25 40 0
17 30 50 46 50 12 1 74 84 74 100 0 33 -32 40 -170 33 -152 -7 -200 3 -227 44
-21 32 -116 96 -173 115 -25 9 -80 23 -122 33 -43 9 -80 21 -84 26 -3 5 -67 9
-143 9 -150 0 -165 5 -148 49 8 22 6 33 -15 66 -14 22 -37 51 -52 64 -14 14
-26 30 -26 37 0 7 -15 30 -32 53 -18 22 -49 61 -68 87 -19 25 -53 64 -75 85
-36 36 -44 39 -77 33 -21 -3 -64 -7 -97 -8 -51 -2 -66 1 -102 26 -37 25 -51
28 -121 28 -55 0 -86 5 -103 16 -16 10 -54 17 -110 19 -48 2 -94 7 -105 10
-20 6 -146 23 -222 30 -26 3 -59 0 -73 -5 -18 -7 -33 -7 -46 1 -31 16 -337 16
-368 0 -10 -6 -67 -12 -127 -15 -60 -3 -126 -9 -146 -12 -21 -3 -38 -2 -38 3
0 12 50 33 79 33 44 0 55 13 48 60 -8 60 -30 80 -88 80 -26 0 -51 -4 -54 -10
-3 -5 -17 -10 -31 -10 -17 0 -24 5 -24 20 0 11 4 20 10 20 17 0 42 48 35 70
-3 11 -20 27 -37 36 -25 13 -35 13 -59 4 -16 -7 -29 -16 -29 -21 0 -22 -40 -6
-59 24 l-21 32 30 26 c23 20 30 34 30 62 0 33 -4 39 -39 57 -47 23 -85 15 -96
-22 -13 -42 -46 -68 -86 -68 -53 0 -57 16 -15 59 20 20 36 41 36 45 0 5 -12
19 -27 32 -42 36 -101 33 -138 -6 -45 -47 -73 -37 -39 15 20 30 11 58 -22 73
-31 15 -33 15 -64 -3z m1460 -725 c8 -4 66 -4 129 0 83 5 122 4 140 -5 14 -7
42 -19 61 -27 19 -9 47 -21 62 -28 16 -8 46 -11 75 -8 55 6 98 -3 98 -20 0
-19 -114 -82 -150 -82 -23 0 -45 -11 -78 -40 -25 -22 -54 -40 -65 -40 -11 0
-71 -26 -134 -58 -62 -32 -140 -68 -173 -82 -33 -13 -72 -32 -87 -42 -14 -10
-35 -18 -46 -18 -33 0 -89 -28 -110 -55 -14 -17 -30 -25 -51 -25 -32 0 -81
-24 -170 -84 -29 -20 -61 -36 -70 -36 -10 0 -30 -13 -45 -29 -15 -16 -40 -31
-55 -34 -16 -3 -42 -18 -59 -32 -18 -15 -36 -24 -42 -20 -5 3 -22 -1 -37 -9
-16 -8 -39 -17 -53 -20 -14 -4 -56 -35 -93 -71 -55 -52 -75 -65 -100 -65 -43
0 -188 -52 -222 -79 -15 -11 -37 -21 -49 -21 -12 0 -35 -14 -51 -30 -23 -24
-35 -29 -56 -25 -40 9 -99 -20 -141 -68 -31 -36 -40 -40 -55 -31 -11 7 -18 22
-17 40 2 55 37 189 55 209 9 11 27 41 39 67 23 50 51 68 76 47 18 -15 83 2
126 32 14 11 29 19 32 19 4 0 20 10 36 22 22 16 47 22 93 24 34 2 75 8 90 13
23 9 27 16 27 51 0 22 -8 53 -17 67 -10 14 -20 47 -23 72 -4 39 -9 47 -28 49
-29 4 -72 -33 -72 -62 0 -12 9 -32 20 -46 30 -39 26 -52 -17 -48 l-38 3 -3 76
c-3 84 -22 117 -61 104 -24 -7 -32 -39 -40 -155 -6 -84 -6 -85 -34 -88 l-29
-3 5 73 c8 108 22 181 37 186 23 8 100 98 100 117 0 20 33 42 73 48 27 4 51
19 85 52 26 26 64 56 84 66 21 10 42 28 48 38 5 11 18 22 29 26 10 3 22 15 28
27 8 19 17 21 120 23 62 1 118 6 125 12 7 6 35 11 62 12 27 1 54 5 60 10 6 4
112 8 234 9 123 0 227 3 230 6 6 7 69 -3 92 -14z m-284 -1355 c10 -8 27 -15
37 -15 9 0 17 -4 17 -10 0 -5 18 -14 40 -20 46 -12 125 -85 155 -143 14 -26
36 -47 69 -65 28 -15 59 -35 70 -44 11 -10 23 -18 28 -18 4 0 10 -10 13 -23
11 -41 82 -97 124 -97 12 0 21 -4 21 -10 0 -5 8 -10 18 -10 24 0 83 -22 115
-43 46 -30 130 -22 232 24 22 9 54 20 70 24 17 3 48 11 70 17 72 19 189 21
240 3 50 -16 74 -38 104 -95 11 -19 31 -46 45 -59 14 -14 26 -30 26 -38 0 -7
4 -13 8 -13 16 0 72 -113 72 -145 0 -13 -39 37 -40 51 0 18 -93 109 -151 147
-67 45 -161 67 -278 67 -89 0 -122 -7 -198 -41 -24 -10 -46 -19 -51 -19 -17 0
-117 -53 -125 -66 -4 -8 -14 -14 -21 -14 -26 0 -76 -67 -134 -180 l-39 -75
-49 0 c-48 0 -50 1 -81 50 -90 140 -199 220 -341 249 -80 16 -192 18 -209 4
-9 -7 -17 -7 -27 1 -10 8 -20 9 -33 2 -46 -24 -114 -51 -131 -51 -11 0 -27 -9
-37 -20 -31 -34 -40 -24 -43 48 -1 37 -4 92 -5 122 l-2 55 31 -1 c19 -1 60
-21 105 -51 41 -27 87 -54 102 -61 36 -15 109 -16 125 0 16 16 15 69 -3 91 -9
13 -12 35 -8 71 4 39 0 68 -16 114 -18 49 -20 66 -11 82 8 16 8 30 1 52 -18
52 -13 98 15 135 27 36 49 41 80 18z m-626 -703 c25 -26 62 -56 83 -65 l38
-18 -21 -29 c-12 -16 -28 -34 -37 -38 -16 -10 -43 -74 -43 -104 0 -14 -8 -18
-34 -18 -30 0 -34 3 -40 33 -8 44 -6 287 3 287 3 0 27 -22 51 -48z m1822 15
c27 -7 53 -18 60 -25 7 -7 18 -12 25 -12 7 0 13 -4 13 -8 0 -5 18 -16 40 -26
28 -12 46 -29 58 -54 10 -20 23 -46 29 -57 25 -47 34 -73 42 -125 5 -30 6 -59
3 -65 -3 -5 -7 -26 -8 -47 -1 -20 -11 -50 -23 -66 -12 -17 -21 -39 -21 -50 0
-11 -19 -37 -42 -59 -24 -21 -51 -51 -61 -66 -9 -15 -26 -27 -35 -27 -10 0
-38 -10 -63 -22 -36 -17 -63 -21 -147 -22 -58 -1 -106 3 -110 9 -4 6 -21 15
-39 21 -17 6 -56 31 -86 55 -44 35 -63 61 -96 129 -39 80 -41 90 -41 170 0
110 24 180 82 237 24 23 49 42 56 43 7 0 20 4 30 9 29 14 95 44 127 57 40 16
149 16 207 1z m-1116 -100 c22 -15 54 -39 73 -53 36 -25 106 -124 130 -181 7
-18 11 -51 8 -75 -7 -66 -38 -170 -58 -200 -11 -14 -19 -31 -19 -36 0 -14 -87
-102 -100 -102 -6 0 -19 -5 -30 -10 -11 -5 -29 -14 -40 -20 -11 -5 -30 -10
-43 -10 -13 0 -28 -5 -34 -11 -6 -6 -43 -11 -82 -11 -55 0 -77 5 -100 21 -16
12 -34 21 -39 21 -24 0 -94 47 -122 81 -43 54 -85 136 -99 193 -11 46 -9 71
14 181 7 33 85 129 118 146 18 10 41 26 51 38 11 12 29 21 42 21 12 0 35 5 51
11 47 18 115 28 179 25 49 -1 70 -8 100 -29z m1872 -16 c9 -5 25 -12 34 -15 9
-3 25 -20 34 -37 16 -31 16 -35 -4 -73 -11 -23 -24 -54 -28 -70 -5 -16 -15
-31 -21 -34 -10 -3 -13 17 -13 77 0 80 0 81 -25 81 -14 0 -27 -6 -29 -12 -2
-7 -9 -33 -16 -58 -7 -25 -16 -54 -21 -65 -13 -33 -40 -165 -48 -240 -4 -38
-13 -83 -19 -100 -11 -27 -18 -84 -41 -310 -10 -101 -17 -120 -48 -140 -22
-15 -27 -15 -48 -1 -20 13 -22 20 -15 45 4 17 12 61 15 98 4 37 12 79 18 93 5
14 13 54 18 90 19 147 26 186 39 215 19 44 31 102 36 170 6 93 22 190 37 217
32 62 99 93 145 69z m-2877 -240 c51 -32 86 -72 96 -109 3 -14 12 -37 19 -51
8 -14 14 -37 14 -51 0 -14 6 -34 13 -45 8 -11 19 -42 26 -70 7 -27 31 -98 52
-156 21 -59 39 -115 39 -125 0 -22 23 -90 33 -100 4 -4 7 -19 7 -33 0 -14 11
-50 25 -79 42 -90 32 -125 -32 -114 -31 6 -50 39 -64 113 -6 35 -18 78 -25 94
-7 17 -16 62 -19 100 -4 39 -10 79 -15 90 -4 11 -18 47 -30 80 -12 33 -26 69
-31 80 -4 11 -19 45 -32 75 -13 30 -36 73 -50 94 -15 21 -27 46 -27 56 0 20
-27 77 -41 86 -6 3 -21 3 -35 0 -20 -5 -24 -13 -24 -41 0 -18 4 -36 9 -39 5
-3 11 -16 14 -28 2 -13 8 -31 12 -40 4 -11 3 -18 -4 -18 -12 0 -51 76 -51 100
0 9 -5 21 -10 26 -15 15 -15 101 0 119 20 25 81 18 131 -14z m2569 -73 c0 -13
-5 -41 -11 -63 -23 -88 -31 -122 -39 -177 -6 -32 -17 -74 -25 -94 -9 -22 -15
-68 -15 -113 0 -60 -5 -81 -20 -101 -11 -14 -20 -37 -20 -52 0 -15 -4 -29 -9
-32 -4 -3 -12 -29 -15 -58 -4 -29 -11 -80 -16 -113 -5 -33 -12 -80 -16 -105
-3 -25 -14 -63 -25 -86 -12 -25 -19 -62 -19 -98 0 -45 -7 -72 -29 -116 -22
-43 -32 -82 -40 -150 -7 -59 -17 -104 -31 -127 -11 -19 -20 -46 -20 -60 0 -14
-11 -38 -25 -55 -14 -16 -25 -39 -25 -50 0 -12 -16 -54 -35 -94 -19 -40 -35
-82 -35 -93 0 -35 -46 -98 -79 -109 -17 -6 -39 -19 -50 -29 -35 -33 -133 -87
-154 -85 -12 0 -26 -3 -32 -7 -5 -5 -32 -12 -60 -15 -27 -3 -84 -10 -125 -15
-228 -31 -373 -25 -480 20 -25 10 -65 24 -88 32 -64 20 -149 85 -172 132 -11
22 -24 47 -29 55 -23 43 -31 61 -31 77 0 19 -65 211 -74 221 -3 3 -6 13 -6 23
0 10 -9 33 -20 51 -11 18 -20 41 -20 51 0 9 -4 25 -9 35 -19 37 -44 119 -49
155 -2 20 -8 40 -13 43 -5 3 -9 13 -9 22 0 9 -14 46 -32 82 -17 36 -34 74 -38
85 -18 50 -29 93 -35 135 -4 25 -16 61 -26 80 -11 19 -19 42 -19 50 0 8 -7 28
-15 44 -8 15 -15 49 -15 74 0 30 -6 53 -18 66 -22 25 -36 68 -53 161 -7 39
-21 85 -31 103 -10 18 -18 46 -18 63 0 17 -4 38 -9 47 -4 9 -11 34 -14 55 -4
28 -2 37 9 37 8 0 14 -9 14 -20 0 -27 43 -122 63 -139 10 -7 17 -22 17 -33 0
-11 18 -36 40 -55 22 -20 40 -42 40 -48 0 -23 93 -85 128 -85 9 0 42 -12 72
-26 48 -23 68 -26 155 -26 109 -1 195 9 210 23 5 5 16 9 24 9 17 0 86 50 151
110 55 51 115 163 145 270 9 36 19 70 20 76 2 7 22 14 45 16 39 3 42 2 56 -30
8 -19 14 -45 14 -57 0 -12 9 -34 20 -48 11 -14 20 -29 20 -35 0 -5 9 -17 20
-27 11 -10 20 -26 20 -35 0 -9 12 -28 28 -43 15 -14 43 -44 62 -67 26 -31 41
-40 58 -37 12 2 25 0 28 -4 3 -5 14 -9 25 -9 10 0 38 -9 62 -19 23 -11 56 -22
72 -26 49 -10 138 -13 155 -5 8 5 46 14 83 20 97 18 139 41 227 128 58 59 85
95 113 153 20 42 39 89 42 105 12 52 27 84 41 84 8 0 14 -10 14 -22z"/>
<path d="M1517 4273 c-14 -14 -6 -89 13 -120 23 -38 39 -41 64 -14 14 15 15
24 7 40 -6 11 -11 30 -11 43 -1 43 -48 76 -73 51z"/>
<path d="M3288 2425 c-31 -28 -38 -41 -38 -72 0 -47 31 -100 63 -108 13 -4 43
-5 67 -3 38 3 48 8 67 37 55 82 11 181 -81 181 -33 0 -48 -7 -78 -35z"/>
<path d="M2160 2387 c-33 -15 -45 -28 -69 -71 -26 -46 -26 -48 3 -94 42 -66
125 -77 188 -25 43 37 25 142 -32 181 -37 24 -53 26 -90 9z"/>
<path d="M2487 1702 c-37 -41 -4 -122 51 -122 11 0 23 -4 26 -9 12 -18 126
-40 221 -43 92 -2 105 0 155 24 31 15 67 40 81 55 28 30 52 89 43 104 -9 15
-65 10 -126 -12 -69 -24 -199 -23 -313 4 -90 22 -118 21 -138 -1z"/>
<path d="M3380 1676 c-7 -14 -10 -36 -6 -50 3 -14 9 -37 12 -50 5 -22 0 -27
-52 -51 -32 -15 -63 -32 -68 -39 -14 -16 -148 -72 -206 -86 -25 -6 -63 -16
-85 -21 -22 -6 -61 -14 -87 -19 -27 -5 -52 -12 -58 -15 -23 -14 -266 17 -350
44 -47 16 -110 34 -140 41 -30 7 -67 21 -82 31 -14 11 -31 19 -37 19 -7 0 -11
23 -11 60 0 56 -2 60 -26 66 -44 11 -77 -7 -101 -55 -12 -24 -28 -51 -36 -60
-47 -56 -69 -129 -51 -175 10 -26 50 -19 77 14 14 17 33 30 41 30 9 0 49 -15
89 -34 39 -19 90 -38 112 -41 51 -8 115 -24 137 -36 10 -5 30 -9 46 -9 15 0
33 -5 40 -12 20 -20 283 -13 382 11 47 12 106 22 132 24 26 1 50 6 54 10 4 4
22 7 40 7 18 0 36 5 39 10 3 6 17 10 30 10 14 0 77 35 144 80 93 62 127 80
154 80 20 0 39 -4 42 -10 9 -14 48 -13 63 2 7 7 12 29 12 50 0 31 -6 42 -36
65 -44 33 -59 48 -99 96 -24 30 -37 37 -66 37 -28 0 -39 -5 -49 -24z"/>
<path d="M2964 812 c-25 -16 -34 -49 -23 -81 10 -28 15 -31 55 -31 39 0 46 3
55 26 22 59 -38 119 -87 86z"/>
<path d="M2553 788 c-23 -11 -33 -43 -26 -83 4 -20 14 -26 59 -35 29 -6 56
-16 59 -21 4 -5 54 -9 113 -9 132 0 152 10 152 74 0 62 -14 70 -104 62 -51 -5
-92 -2 -137 9 -74 17 -86 17 -116 3z"/>
</g>
</svg>
